<mxfile host="Electron" modified="2024-08-26T09:37:31.620Z" agent="Mozilla/5.0 (Windows NT 10.0; Win64; x64) AppleWebKit/537.36 (KHTML, like Gecko) draw.io/22.1.11 Chrome/114.0.5735.289 Electron/25.9.8 Safari/537.36" etag="LxJ_VTjIahOqlD-UVHEO" version="22.1.11" type="device">
  <diagram name="第 1 页" id="VTdFZX9P3KalDD9y3uEt">
    <mxGraphModel dx="1418" dy="820" grid="1" gridSize="10" guides="1" tooltips="1" connect="1" arrows="1" fold="1" page="1" pageScale="1" pageWidth="827" pageHeight="1169" math="0" shadow="0">
      <root>
        <mxCell id="0" />
        <mxCell id="1" parent="0" />
        <mxCell id="yHS2NC86qnN9DSnrhZeF-43" value="" style="sketch=0;shadow=0;dashed=0;html=1;strokeColor=none;fillColor=#505050;labelPosition=center;verticalLabelPosition=bottom;verticalAlign=top;outlineConnect=0;align=center;shape=mxgraph.office.databases.database;points=[[0,0.33,0,0,0],[0,0.67,0,0,0],[0.33,0,0,0,0],[0.33,1,0,0,0],[0.67,0,0,0,0],[0.67,1,0,0,0],[1,0.33,0,0,0],[1,0.67,0,0,0]];" parent="1" vertex="1">
          <mxGeometry x="712.5" y="480" width="35" height="49" as="geometry" />
        </mxCell>
        <mxCell id="yHS2NC86qnN9DSnrhZeF-44" value="" style="sketch=0;pointerEvents=1;shadow=0;dashed=0;html=1;strokeColor=none;fillColor=#505050;labelPosition=center;verticalLabelPosition=bottom;verticalAlign=top;outlineConnect=0;align=center;shape=mxgraph.office.security.key_permissions;rotation=90;" parent="1" vertex="1">
          <mxGeometry x="426" y="450" width="16" height="30" as="geometry" />
        </mxCell>
        <mxCell id="yHS2NC86qnN9DSnrhZeF-45" value="" style="sketch=0;pointerEvents=1;shadow=0;dashed=0;html=1;strokeColor=none;fillColor=#505050;labelPosition=center;verticalLabelPosition=bottom;verticalAlign=top;outlineConnect=0;align=center;shape=mxgraph.office.servers.application_server;points=[[0,0.33,0,0,0],[0,0.67,0,0,0],[0.33,0,0,0,0],[0.33,1,0,0,0],[0.67,0,0,0,0],[0.67,1,0,0,0],[1,0.33,0,0,0],[1,0.67,0,0,0]];" parent="1" vertex="1">
          <mxGeometry x="380" y="640" width="46" height="56" as="geometry" />
        </mxCell>
        <mxCell id="yHS2NC86qnN9DSnrhZeF-46" value="" style="sketch=0;pointerEvents=1;shadow=0;dashed=0;html=1;strokeColor=none;fillColor=#505050;labelPosition=center;verticalLabelPosition=bottom;verticalAlign=top;outlineConnect=0;align=center;shape=mxgraph.office.devices.tv;points=[[0,0.33,0,0,0],[0,0.67,0,0,0],[0.33,0,0,0,0],[0.33,1,0,0,0],[0.67,0,0,0,0],[0.67,1,0,0,0],[1,0.33,0,0,0],[1,0.67,0,0,0]];" parent="1" vertex="1">
          <mxGeometry x="110" y="470" width="60" height="45" as="geometry" />
        </mxCell>
        <mxCell id="yHS2NC86qnN9DSnrhZeF-50" style="rounded=0;orthogonalLoop=1;jettySize=auto;html=1;exitX=1;exitY=0.67;exitDx=0;exitDy=0;exitPerimeter=0;entryX=0;entryY=0.67;entryDx=0;entryDy=0;entryPerimeter=0;" parent="1" source="yHS2NC86qnN9DSnrhZeF-46" target="yHS2NC86qnN9DSnrhZeF-45" edge="1">
          <mxGeometry relative="1" as="geometry" />
        </mxCell>
        <mxCell id="yHS2NC86qnN9DSnrhZeF-51" style="rounded=0;orthogonalLoop=1;jettySize=auto;html=1;exitX=0;exitY=0.33;exitDx=0;exitDy=0;exitPerimeter=0;entryX=1;entryY=0.33;entryDx=0;entryDy=0;entryPerimeter=0;" parent="1" source="yHS2NC86qnN9DSnrhZeF-45" target="yHS2NC86qnN9DSnrhZeF-46" edge="1">
          <mxGeometry relative="1" as="geometry" />
        </mxCell>
        <mxCell id="yHS2NC86qnN9DSnrhZeF-52" value="" style="sketch=0;pointerEvents=1;shadow=0;dashed=0;html=1;strokeColor=none;fillColor=#505050;labelPosition=center;verticalLabelPosition=bottom;verticalAlign=top;outlineConnect=0;align=center;shape=mxgraph.office.servers.application_server;points=[[0,0.33,0,0,0],[0,0.67,0,0,0],[0.33,0,0,0,0],[0.33,1,0,0,0],[0.67,0,0,0,0],[0.67,1,0,0,0],[1,0.33,0,0,0],[1,0.67,0,0,0]];" parent="1" vertex="1">
          <mxGeometry x="380" y="300" width="46" height="56" as="geometry" />
        </mxCell>
        <mxCell id="yHS2NC86qnN9DSnrhZeF-54" style="rounded=0;orthogonalLoop=1;jettySize=auto;html=1;exitX=0.33;exitY=0;exitDx=0;exitDy=0;exitPerimeter=0;entryX=0.33;entryY=1;entryDx=0;entryDy=0;entryPerimeter=0;" parent="1" source="yHS2NC86qnN9DSnrhZeF-45" target="yHS2NC86qnN9DSnrhZeF-52" edge="1">
          <mxGeometry relative="1" as="geometry" />
        </mxCell>
        <mxCell id="yHS2NC86qnN9DSnrhZeF-56" style="rounded=0;orthogonalLoop=1;jettySize=auto;html=1;exitX=1;exitY=0.33;exitDx=0;exitDy=0;exitPerimeter=0;entryX=0;entryY=0.33;entryDx=0;entryDy=0;entryPerimeter=0;" parent="1" source="yHS2NC86qnN9DSnrhZeF-52" target="yHS2NC86qnN9DSnrhZeF-43" edge="1">
          <mxGeometry relative="1" as="geometry" />
        </mxCell>
        <mxCell id="yHS2NC86qnN9DSnrhZeF-58" style="rounded=0;orthogonalLoop=1;jettySize=auto;html=1;exitX=1;exitY=0.33;exitDx=0;exitDy=0;exitPerimeter=0;entryX=0;entryY=0.33;entryDx=0;entryDy=0;entryPerimeter=0;" parent="1" source="yHS2NC86qnN9DSnrhZeF-45" target="yHS2NC86qnN9DSnrhZeF-43" edge="1">
          <mxGeometry relative="1" as="geometry" />
        </mxCell>
        <mxCell id="yHS2NC86qnN9DSnrhZeF-61" value="0. 公玥分发" style="text;html=1;align=center;verticalAlign=middle;resizable=0;points=[];autosize=1;strokeColor=none;fillColor=none;" parent="1" vertex="1">
          <mxGeometry x="394" y="489.5" width="80" height="30" as="geometry" />
        </mxCell>
        <mxCell id="yHS2NC86qnN9DSnrhZeF-62" value="1.登录" style="text;html=1;align=center;verticalAlign=middle;resizable=0;points=[];autosize=1;strokeColor=none;fillColor=none;rotation=45;" parent="1" vertex="1">
          <mxGeometry x="210" y="570" width="60" height="30" as="geometry" />
        </mxCell>
        <mxCell id="yHS2NC86qnN9DSnrhZeF-63" value="2.认证" style="text;html=1;align=center;verticalAlign=middle;resizable=0;points=[];autosize=1;strokeColor=none;fillColor=none;rotation=-30;" parent="1" vertex="1">
          <mxGeometry x="540" y="600" width="60" height="30" as="geometry" />
        </mxCell>
        <mxCell id="yHS2NC86qnN9DSnrhZeF-64" value="3. 生成 Token（私钥加密）" style="text;html=1;align=center;verticalAlign=middle;resizable=0;points=[];autosize=1;strokeColor=none;fillColor=none;" parent="1" vertex="1">
          <mxGeometry x="307" y="710" width="170" height="30" as="geometry" />
        </mxCell>
        <mxCell id="yHS2NC86qnN9DSnrhZeF-65" value="4.返回 Token" style="text;html=1;align=center;verticalAlign=middle;resizable=0;points=[];autosize=1;strokeColor=none;fillColor=none;rotation=40;" parent="1" vertex="1">
          <mxGeometry x="250" y="540" width="90" height="30" as="geometry" />
        </mxCell>
        <mxCell id="yHS2NC86qnN9DSnrhZeF-66" style="rounded=0;orthogonalLoop=1;jettySize=auto;html=1;exitX=1;exitY=0.33;exitDx=0;exitDy=0;exitPerimeter=0;entryX=0;entryY=0.33;entryDx=0;entryDy=0;entryPerimeter=0;" parent="1" source="yHS2NC86qnN9DSnrhZeF-46" target="yHS2NC86qnN9DSnrhZeF-52" edge="1">
          <mxGeometry relative="1" as="geometry" />
        </mxCell>
        <mxCell id="yHS2NC86qnN9DSnrhZeF-67" style="rounded=0;orthogonalLoop=1;jettySize=auto;html=1;exitX=0;exitY=0.67;exitDx=0;exitDy=0;exitPerimeter=0;entryX=1;entryY=0.67;entryDx=0;entryDy=0;entryPerimeter=0;" parent="1" source="yHS2NC86qnN9DSnrhZeF-52" target="yHS2NC86qnN9DSnrhZeF-46" edge="1">
          <mxGeometry relative="1" as="geometry" />
        </mxCell>
        <mxCell id="yHS2NC86qnN9DSnrhZeF-68" value="5. 请求" style="text;html=1;align=center;verticalAlign=middle;resizable=0;points=[];autosize=1;strokeColor=none;fillColor=none;rotation=-40;" parent="1" vertex="1">
          <mxGeometry x="200" y="390" width="60" height="30" as="geometry" />
        </mxCell>
        <mxCell id="yHS2NC86qnN9DSnrhZeF-70" value="7. 权限检测" style="text;html=1;align=center;verticalAlign=middle;resizable=0;points=[];autosize=1;strokeColor=none;fillColor=none;rotation=30;" parent="1" vertex="1">
          <mxGeometry x="560" y="390" width="80" height="30" as="geometry" />
        </mxCell>
        <mxCell id="yHS2NC86qnN9DSnrhZeF-71" value="8. 处理请求" style="text;html=1;align=center;verticalAlign=middle;resizable=0;points=[];autosize=1;strokeColor=none;fillColor=none;" parent="1" vertex="1">
          <mxGeometry x="352" y="260" width="80" height="30" as="geometry" />
        </mxCell>
        <mxCell id="yHS2NC86qnN9DSnrhZeF-72" value="9. 返回结果" style="text;html=1;align=center;verticalAlign=middle;resizable=0;points=[];autosize=1;strokeColor=none;fillColor=none;rotation=-40;" parent="1" vertex="1">
          <mxGeometry x="220" y="448" width="80" height="30" as="geometry" />
        </mxCell>
        <mxCell id="Q8LE-2fDN8TDy7-z8G9v-3" value="" style="image;sketch=0;aspect=fixed;html=1;points=[[0,0.33,0,0,0],[0,0.67,0,0,0],[0.33,0,0,0,0],[0.33,1,0,0,0],[0.67,0,0,0,0],[0.67,1,0,0,0],[1,0.33,0,0,0],[1,0.67,0,0,0]];align=center;fontSize=12;image=img/lib/mscae/Cache_Redis_Product.svg;" vertex="1" parent="1">
          <mxGeometry x="712.5" y="307" width="50" height="42" as="geometry" />
        </mxCell>
        <mxCell id="Q8LE-2fDN8TDy7-z8G9v-4" style="rounded=0;orthogonalLoop=1;jettySize=auto;html=1;exitX=1;exitY=0.33;exitDx=0;exitDy=0;exitPerimeter=0;entryX=0;entryY=0.33;entryDx=0;entryDy=0;entryPerimeter=0;" edge="1" parent="1" source="yHS2NC86qnN9DSnrhZeF-52" target="Q8LE-2fDN8TDy7-z8G9v-3">
          <mxGeometry relative="1" as="geometry" />
        </mxCell>
        <mxCell id="Q8LE-2fDN8TDy7-z8G9v-5" value="6. 黑名单检测" style="text;html=1;align=center;verticalAlign=middle;resizable=0;points=[];autosize=1;strokeColor=none;fillColor=none;" vertex="1" parent="1">
          <mxGeometry x="540" y="290" width="100" height="30" as="geometry" />
        </mxCell>
        <mxCell id="Q8LE-2fDN8TDy7-z8G9v-6" value="" style="sketch=0;pointerEvents=1;shadow=0;dashed=0;html=1;strokeColor=none;fillColor=#505050;labelPosition=center;verticalLabelPosition=bottom;verticalAlign=top;outlineConnect=0;align=center;shape=mxgraph.office.devices.tv;points=[[0,0.33,0,0,0],[0,0.67,0,0,0],[0.33,0,0,0,0],[0.33,1,0,0,0],[0.67,0,0,0,0],[0.67,1,0,0,0],[1,0.33,0,0,0],[1,0.67,0,0,0]];" vertex="1" parent="1">
          <mxGeometry x="110" y="950" width="60" height="45" as="geometry" />
        </mxCell>
        <mxCell id="Q8LE-2fDN8TDy7-z8G9v-7" value="" style="sketch=0;pointerEvents=1;shadow=0;dashed=0;html=1;strokeColor=none;fillColor=#505050;labelPosition=center;verticalLabelPosition=bottom;verticalAlign=top;outlineConnect=0;align=center;shape=mxgraph.office.servers.application_server;points=[[0,0.33,0,0,0],[0,0.67,0,0,0],[0.33,0,0,0,0],[0.33,1,0,0,0],[0.67,0,0,0,0],[0.67,1,0,0,0],[1,0.33,0,0,0],[1,0.67,0,0,0]];" vertex="1" parent="1">
          <mxGeometry x="386" y="820" width="46" height="56" as="geometry" />
        </mxCell>
        <mxCell id="Q8LE-2fDN8TDy7-z8G9v-8" style="rounded=0;orthogonalLoop=1;jettySize=auto;html=1;exitX=1;exitY=0.33;exitDx=0;exitDy=0;exitPerimeter=0;entryX=0;entryY=0.33;entryDx=0;entryDy=0;entryPerimeter=0;" edge="1" parent="1" source="Q8LE-2fDN8TDy7-z8G9v-6" target="Q8LE-2fDN8TDy7-z8G9v-7">
          <mxGeometry relative="1" as="geometry" />
        </mxCell>
        <mxCell id="Q8LE-2fDN8TDy7-z8G9v-9" style="rounded=0;orthogonalLoop=1;jettySize=auto;html=1;exitX=0;exitY=0.67;exitDx=0;exitDy=0;exitPerimeter=0;entryX=1;entryY=0.67;entryDx=0;entryDy=0;entryPerimeter=0;" edge="1" parent="1" source="Q8LE-2fDN8TDy7-z8G9v-7" target="Q8LE-2fDN8TDy7-z8G9v-6">
          <mxGeometry relative="1" as="geometry" />
        </mxCell>
        <mxCell id="Q8LE-2fDN8TDy7-z8G9v-10" value="" style="sketch=0;pointerEvents=1;shadow=0;dashed=0;html=1;strokeColor=none;fillColor=#505050;labelPosition=center;verticalLabelPosition=bottom;verticalAlign=top;outlineConnect=0;align=center;shape=mxgraph.office.servers.application_server;points=[[0,0.33,0,0,0],[0,0.67,0,0,0],[0.33,0,0,0,0],[0.33,1,0,0,0],[0.67,0,0,0,0],[0.67,1,0,0,0],[1,0.33,0,0,0],[1,0.67,0,0,0]];" vertex="1" parent="1">
          <mxGeometry x="340" y="1040" width="46" height="56" as="geometry" />
        </mxCell>
        <mxCell id="Q8LE-2fDN8TDy7-z8G9v-11" style="rounded=0;orthogonalLoop=1;jettySize=auto;html=1;exitX=1;exitY=0.33;exitDx=0;exitDy=0;exitPerimeter=0;entryX=0;entryY=0.33;entryDx=0;entryDy=0;entryPerimeter=0;" edge="1" parent="1" source="Q8LE-2fDN8TDy7-z8G9v-6" target="Q8LE-2fDN8TDy7-z8G9v-10">
          <mxGeometry relative="1" as="geometry" />
        </mxCell>
        <mxCell id="Q8LE-2fDN8TDy7-z8G9v-13" style="rounded=0;orthogonalLoop=1;jettySize=auto;html=1;exitX=0;exitY=0.67;exitDx=0;exitDy=0;exitPerimeter=0;entryX=1;entryY=0.67;entryDx=0;entryDy=0;entryPerimeter=0;" edge="1" parent="1" source="Q8LE-2fDN8TDy7-z8G9v-10" target="Q8LE-2fDN8TDy7-z8G9v-6">
          <mxGeometry relative="1" as="geometry" />
        </mxCell>
        <mxCell id="Q8LE-2fDN8TDy7-z8G9v-14" value="1. 请求" style="text;html=1;align=center;verticalAlign=middle;resizable=0;points=[];autosize=1;strokeColor=none;fillColor=none;rotation=-30;" vertex="1" parent="1">
          <mxGeometry x="230" y="880" width="60" height="30" as="geometry" />
        </mxCell>
        <mxCell id="Q8LE-2fDN8TDy7-z8G9v-15" value="2. 告知 Access Token 已经过期" style="text;html=1;align=center;verticalAlign=middle;resizable=0;points=[];autosize=1;strokeColor=none;fillColor=none;rotation=-30;" vertex="1" parent="1">
          <mxGeometry x="200" y="910" width="190" height="30" as="geometry" />
        </mxCell>
        <mxCell id="Q8LE-2fDN8TDy7-z8G9v-18" value="3. Refresh Token" style="text;html=1;align=center;verticalAlign=middle;resizable=0;points=[];autosize=1;strokeColor=none;fillColor=none;rotation=30;" vertex="1" parent="1">
          <mxGeometry x="230" y="995" width="110" height="30" as="geometry" />
        </mxCell>
        <mxCell id="Q8LE-2fDN8TDy7-z8G9v-19" value="" style="sketch=0;shadow=0;dashed=0;html=1;strokeColor=none;fillColor=#505050;labelPosition=center;verticalLabelPosition=bottom;verticalAlign=top;outlineConnect=0;align=center;shape=mxgraph.office.databases.database;points=[[0,0.33,0,0,0],[0,0.67,0,0,0],[0.33,0,0,0,0],[0.33,1,0,0,0],[0.67,0,0,0,0],[0.67,1,0,0,0],[1,0.33,0,0,0],[1,0.67,0,0,0]];" vertex="1" parent="1">
          <mxGeometry x="539" y="1120" width="35" height="49" as="geometry" />
        </mxCell>
        <mxCell id="Q8LE-2fDN8TDy7-z8G9v-20" style="rounded=0;orthogonalLoop=1;jettySize=auto;html=1;exitX=1;exitY=0.33;exitDx=0;exitDy=0;exitPerimeter=0;entryX=0;entryY=0.33;entryDx=0;entryDy=0;entryPerimeter=0;" edge="1" parent="1" source="Q8LE-2fDN8TDy7-z8G9v-10" target="Q8LE-2fDN8TDy7-z8G9v-19">
          <mxGeometry relative="1" as="geometry" />
        </mxCell>
        <mxCell id="Q8LE-2fDN8TDy7-z8G9v-21" value="5. 用户是否被 Ban" style="text;html=1;align=center;verticalAlign=middle;resizable=0;points=[];autosize=1;strokeColor=none;fillColor=none;rotation=30;" vertex="1" parent="1">
          <mxGeometry x="386" y="1110" width="120" height="30" as="geometry" />
        </mxCell>
        <mxCell id="Q8LE-2fDN8TDy7-z8G9v-22" value="6. 返回" style="text;html=1;align=center;verticalAlign=middle;resizable=0;points=[];autosize=1;strokeColor=none;fillColor=none;rotation=30;" vertex="1" parent="1">
          <mxGeometry x="220" y="1030" width="60" height="30" as="geometry" />
        </mxCell>
        <mxCell id="Q8LE-2fDN8TDy7-z8G9v-24" value="" style="image;sketch=0;aspect=fixed;html=1;points=[[0,0.33,0,0,0],[0,0.67,0,0,0],[0.33,0,0,0,0],[0.33,1,0,0,0],[0.67,0,0,0,0],[0.67,1,0,0,0],[1,0.33,0,0,0],[1,0.67,0,0,0]];align=center;fontSize=12;image=img/lib/mscae/Cache_Redis_Product.svg;" vertex="1" parent="1">
          <mxGeometry x="521" y="968" width="50" height="42" as="geometry" />
        </mxCell>
        <mxCell id="Q8LE-2fDN8TDy7-z8G9v-26" style="rounded=0;orthogonalLoop=1;jettySize=auto;html=1;exitX=1;exitY=0.33;exitDx=0;exitDy=0;exitPerimeter=0;entryX=0;entryY=0.33;entryDx=0;entryDy=0;entryPerimeter=0;" edge="1" parent="1" source="Q8LE-2fDN8TDy7-z8G9v-10" target="Q8LE-2fDN8TDy7-z8G9v-24">
          <mxGeometry relative="1" as="geometry" />
        </mxCell>
        <mxCell id="Q8LE-2fDN8TDy7-z8G9v-27" value="4. Refresh 的黑名单检测" style="text;html=1;align=center;verticalAlign=middle;resizable=0;points=[];autosize=1;strokeColor=none;fillColor=none;rotation=-30;" vertex="1" parent="1">
          <mxGeometry x="371" y="980" width="150" height="30" as="geometry" />
        </mxCell>
      </root>
    </mxGraphModel>
  </diagram>
</mxfile>
